<svg width="50" height="53" viewBox="0 0 50 53" fill="none" xmlns="http://www.w3.org/2000/svg">
<path d="M20.4908 37.4305C22.4153 34.0971 27.2266 34.0971 29.1511 37.4305L33.4812 44.9305C35.4057 48.2638 33.0001 52.4305 29.1511 52.4305H20.4908C16.6418 52.4305 14.2362 48.2638 16.1607 44.9305L20.4908 37.4305Z" fill="#D5872B"/>
<path d="M32.2511 34.6322C29.6756 31.7718 31.1623 27.1961 34.9272 26.3958L43.3982 24.5952C47.1631 23.795 50.3825 27.3704 49.1931 31.0311L46.5169 39.2674C45.3275 42.9281 40.6214 43.9284 38.0459 41.068L32.2511 34.6322Z" fill="#D5872B"/>
<path d="M32.6993 24.2157C29.183 25.7812 25.2907 22.9532 25.693 19.1253L27.2319 4.48349C27.6342 0.655573 32.0295 -1.30133 35.1434 0.961056L47.0541 9.61469C50.168 11.8771 49.6651 16.662 46.1489 18.2275L32.6993 24.2157Z" fill="#D1C028"/>
<path d="M22.6845 17.405C23.0868 21.2329 19.1945 24.0609 15.6782 22.4953L7.76668 18.9729C4.25045 17.4073 3.74754 12.6225 6.86145 10.3601L13.8677 5.26969C16.9817 3.00731 21.3769 4.96422 21.7793 8.79214L22.6845 17.405Z" fill="#D5872B"/>
<path d="M14.517 26.3958C18.2818 27.196 19.7686 31.7718 17.1931 34.6321L11.3983 41.068C8.82278 43.9283 4.11667 42.928 2.92727 39.2674L0.251099 31.031C-0.938308 27.3704 2.28105 23.7949 6.04594 24.5952L14.517 26.3958Z" fill="#D5872B"/>
</svg>
